<?xml version="1.0" encoding="UTF-8" standalone="no"?>
<!-- Created with Inkscape (http://www.inkscape.org/) -->

<svg
   xmlns:dc="http://purl.org/dc/elements/1.1/"
   xmlns:cc="http://creativecommons.org/ns#"
   xmlns:rdf="http://www.w3.org/1999/02/22-rdf-syntax-ns#"
   xmlns:svg="http://www.w3.org/2000/svg"
   xmlns="http://www.w3.org/2000/svg"
   xmlns:sodipodi="http://sodipodi.sourceforge.net/DTD/sodipodi-0.dtd"
   xmlns:inkscape="http://www.inkscape.org/namespaces/inkscape"
   width="2000"
   height="1122.5197"
   viewBox="0 0 529.16665 297"
   version="1.1"
   id="svg8"
   sodipodi:docname="elmsg-logos.svg"
   inkscape:version="0.92.1 r">
  <defs
     id="defs2" />
  <sodipodi:namedview
     id="base"
     pagecolor="#ffffff"
     bordercolor="#666666"
     borderopacity="1.0"
     inkscape:pageopacity="0.0"
     inkscape:pageshadow="2"
     inkscape:zoom="0.66903058"
     inkscape:cx="982.53041"
     inkscape:cy="576.01187"
     inkscape:document-units="mm"
     inkscape:current-layer="layer1"
     showgrid="false"
     inkscape:window-width="1920"
     inkscape:window-height="983"
     inkscape:window-x="0"
     inkscape:window-y="27"
     inkscape:window-maximized="1"
     units="px" />
  <metadata
     id="metadata5">
    <rdf:RDF>
      <cc:Work
         rdf:about="">
        <dc:format>image/svg+xml</dc:format>
        <dc:type
           rdf:resource="http://purl.org/dc/dcmitype/StillImage" />
        <dc:title />
      </cc:Work>
    </rdf:RDF>
  </metadata>
  <g
     inkscape:label="Layer 1"
     inkscape:groupmode="layer"
     id="layer1"
     transform="translate(0,4.852417e-5)">
    <flowRoot
       xml:space="preserve"
       id="flowRoot4673"
       style="font-style:normal;font-weight:normal;font-size:40px;line-height:125%;font-family:sans-serif;letter-spacing:0px;word-spacing:0px;fill:#000000;fill-opacity:1;stroke:none;stroke-width:1px;stroke-linecap:butt;stroke-linejoin:miter;stroke-opacity:1"><flowRegion
         id="flowRegion4675"><rect
           id="rect4677"
           width="247.26422"
           height="75.157074"
           x="164.87834"
           y="154.38785" /></flowRegion><flowPara
         id="flowPara4679" /></flowRoot>    <flowRoot
       xml:space="preserve"
       id="flowRoot4503"
       style="font-style:normal;font-weight:normal;font-size:40px;line-height:125%;font-family:sans-serif;letter-spacing:0px;word-spacing:0px;fill:#000000;fill-opacity:1;stroke:none;stroke-width:1px;stroke-linecap:butt;stroke-linejoin:miter;stroke-opacity:1"
       transform="scale(0.26458333)"><flowRegion
         id="flowRegion4505"><rect
           id="rect4507"
           width="251.54518"
           height="93.008301"
           x="172.27673"
           y="115.28207" /></flowRegion><flowPara
         id="flowPara4509" /></flowRoot>    <g
       id="g4692"
       inkscape:export-xdpi="96"
       inkscape:export-ydpi="96"
       transform="translate(17.337769,82.773864)">
      <path
         sodipodi:nodetypes="ccccc"
         inkscape:connector-curvature="0"
         id="path4535"
         d="m 36.13063,40.040293 9.522272,9.102813 34.670897,0.910013 -10.494968,-10.012826 z"
         style="opacity:0.97000002;fill:#efa500;fill-opacity:1;stroke:none;stroke-width:2.09020829;stroke-linecap:round;stroke-linejoin:round;stroke-miterlimit:4;stroke-dasharray:none;stroke-opacity:1" />
      <path
         sodipodi:nodetypes="cccccc"
         inkscape:connector-curvature="0"
         id="path4533"
         d="m 74.051313,41.918789 8.237213,7.892662 2.228066,0.166754 9.743426,9.989158 V 41.918789 Z"
         style="opacity:0.5;fill:#60b5cc;fill-opacity:1;stroke:none;stroke-width:1.99554896;stroke-linecap:round;stroke-linejoin:round;stroke-miterlimit:4;stroke-dasharray:none;stroke-opacity:1" />
      <path
         sodipodi:nodetypes="ccccccccccccc"
         inkscape:connector-curvature="0"
         id="path4531"
         d="M 34.915719,42.303722 14.121639,64.058467 V 81.675994 L 35.195288,66.184952 v 0.01498 l -19.116145,21.488608 12.649872,27.265 31.242539,9.49141 5.239988,8.107 -0.148309,-8.74934 -34.372859,-24.163449 c 0,0 23.348298,-20.836482 32.663402,-30.159327 z"
         style="opacity:0.97000002;fill:#5a6378;fill-opacity:1;stroke:none;stroke-width:2.09020829;stroke-linecap:round;stroke-linejoin:round;stroke-miterlimit:4;stroke-dasharray:none;stroke-opacity:1" />
      <path
         sodipodi:nodetypes="cccccccccccccsccccccc"
         inkscape:connector-curvature="0"
         id="path4529"
         d="m 83.34997,51.417895 v 0.0078 l -35.761641,0.07235 16.147997,14.749788 8.138893,-2.666288 -4.154268,7.702888 14.003795,14.350029 4.375444,-1.29191 -2.318721,-4.356841 c 0,0 4.762495,-4.894794 10.715625,-4.630208 3.704158,-0.396873 7.805206,0.132291 7.805206,0.132291 l 3.30729,4.497917 c 0,0 3.70092,-5.305748 5.36453,-9.130707 1.25967,-2.294456 2.26105,-4.314396 2.30839,-5.024501 0.13229,-1.984375 -5.68854,-3.175 -5.68854,-3.175 l -12.529985,0.233061 -0.409279,-0.165881 z m 7.70754,11.63443 c 0,0 -3.439583,6.746875 -6.614583,0.132292 6.482292,-0.132292 6.614583,-0.132292 6.614583,-0.132292 z"
         style="opacity:0.97000002;fill:#8ad437;fill-opacity:1;stroke:none;stroke-width:2.09020829;stroke-linecap:round;stroke-linejoin:round;stroke-miterlimit:4;stroke-dasharray:none;stroke-opacity:1" />
      <path
         inkscape:connector-curvature="0"
         id="path4525"
         d="m 65.129379,70.909728 -5.3e-4,5.29e-4 h 0.0011 z"
         style="opacity:0.97000002;fill:#ba8078;fill-opacity:1;stroke:none;stroke-width:2.09020829;stroke-linecap:round;stroke-linejoin:round;stroke-miterlimit:4;stroke-dasharray:none;stroke-opacity:1" />
      <path
         inkscape:connector-curvature="0"
         id="path4523"
         d="m 64.715449,71.323655 -28.584819,28.584819 30.959351,23.152596 -0.593244,10.38076 -11.518161,10.43088 17.153474,-8.79946 4.629692,-21.65759 -12.02459,-11.74502 -0.02169,-1.762166 z"
         style="opacity:0.97000002;fill:#60b5cc;fill-opacity:1;stroke:none;stroke-width:2.09020829;stroke-linecap:round;stroke-linejoin:round;stroke-miterlimit:4;stroke-dasharray:none;stroke-opacity:1" />
      <path
         sodipodi:nodetypes="cccccccc"
         inkscape:connector-curvature="0"
         id="path4521"
         d="m 67.598637,74.414616 0.07425,26.783924 11.74296,11.33087 -6.35,23.15104 -18.917708,9.26042 25.929166,-7.54063 14.050306,-37.491766 z"
         style="opacity:0.97000002;fill:#5a6378;fill-opacity:1;stroke:none;stroke-width:2.09020829;stroke-linecap:round;stroke-linejoin:round;stroke-miterlimit:4;stroke-dasharray:none;stroke-opacity:1" />
      <path
         inkscape:connector-curvature="0"
         id="rect4485"
         d="m 98.99501,84.483575 c -1.940202,1.115801 -2.869014,1.625052 -4.7625,2.513542 -1.835962,0.834533 -4.19345,0.406154 -5.687507,-0.02429 l -1.871114,-1.657117 -3.388514,1.879327 11.77861,11.77861 z"
         style="opacity:0.97000002;fill:#efa500;fill-opacity:1;stroke:none;stroke-width:2.09020829;stroke-linecap:round;stroke-linejoin:round;stroke-miterlimit:4;stroke-dasharray:none;stroke-opacity:1" />
      <flowRoot
         transform="matrix(0.48658652,0,0,0.5035931,-36.388399,-41.85274)"
         style="font-style:normal;font-weight:normal;font-size:40px;line-height:125%;font-family:sans-serif;letter-spacing:0px;word-spacing:0px;fill:#5a6378;fill-opacity:0.97254902;stroke:none;stroke-width:1px;stroke-linecap:butt;stroke-linejoin:miter;stroke-opacity:1"
         id="flowRoot4511"
         xml:space="preserve"><flowRegion
           style="fill:#5a6378;fill-opacity:0.97254902"
           id="flowRegion4513"><rect
             style="fill:#5a6378;fill-opacity:0.97254902"
             y="123.73737"
             x="153.25232"
             height="78.211525"
             width="200.81337"
             id="rect4515" /></flowRegion><flowPara
           style="font-style:normal;font-variant:normal;font-weight:normal;font-stretch:normal;font-family:'Source Sans Pro';-inkscape-font-specification:'Source Sans Pro';fill:#5a6378;fill-opacity:0.97254902"
           id="flowPara4517">elm sg</flowPara></flowRoot>    </g>
    <g
       id="g4708"
       transform="translate(79.031511,-71.460486)"
       inkscape:export-xdpi="96"
       inkscape:export-ydpi="96">
      <path
         style="opacity:1;fill:#8ad437;fill-opacity:1;stroke:none;stroke-width:3;stroke-linecap:round;stroke-linejoin:round;stroke-miterlimit:4;stroke-dasharray:none;stroke-opacity:1"
         d="m 640.15625,168.8457 -131.76172,0.002 59.01367,59.01562 c -1.16343,-2.65328 -1.83007,-5.77231 -1.83008,-9.32422 0,-12.10527 7.8697,-19.49023 16.03516,-19.49023 9.12177,0 14.27149,6.77678 14.27149,17.35937 0,1.29428 -0.0736,2.66452 -0.22071,3.57813 h -24.1289 c 0.44137,7.84178 5.07665,12.86719 11.91796,12.86719 3.38389,0 6.25214,-1.14346 8.9004,-2.89454 l 2.13476,4.11133 c -1.09402,0.72788 -2.28658,1.41271 -3.57812,2 l 4.63476,-0.125 -0.0156,-0.0156 10.88672,0.0371 c -1.17043,-1.4166 -1.69532,-3.59318 -1.69532,-6.46485 v -46.74609 h 6.03125 v 47.20312 c 0,1.97948 0.80866,2.74219 1.69141,2.74219 0.36781,0 0.66215,-7e-5 1.32422,-0.15234 l 0.5918,3.44336 9.18164,0.0312 v -36.06055 h 5.00195 l 0.51562,5.33008 h 0.22071 c 3.08963,-3.50215 6.84078,-6.24414 11.10742,-6.24414 5.44364,0 8.38617,2.66432 9.85742,7.08008 3.7517,-4.18736 7.43129,-7.08008 11.77148,-7.08008 7.35627,0 10.88672,5.02426 10.88672,14.46484 v 22.67578 l 34.5,0.11719 0.10743,-0.10742 z m -58.39453,35.15235 c -5.00226,0 -9.5632,4.18725 -10.29883,11.49609 h 19.125 c 0,-7.46111 -3.23541,-11.49609 -8.82617,-11.49609 z m 56.78711,0.45703 c -2.64826,0 -5.66429,1.90229 -8.97461,5.70898 v 25.87891 l 15.66797,0.0527 v -21.74414 c 0,-6.92817 -2.13248,-9.89648 -6.69336,-9.89648 z m 21.70117,0 c -2.79538,0 -5.66429,1.90229 -8.97461,5.70898 v 25.95313 l 15.59375,0.0527 v -21.81836 c 0,-6.92817 -2.13182,-9.89648 -6.61914,-9.89648 z"
         transform="matrix(0.26458333,0,0,0.26458333,-61.693742,154.2343)"
         id="path4634"
         inkscape:connector-curvature="0" />
      <path
         transform="scale(0.26458333)"
         id="path4632"
         d="M 414.80859,751.7813 545.21094,882.18364 V 751.78125 Z"
         style="opacity:1;fill:#60b5cc;fill-opacity:1;stroke:none;stroke-width:3;stroke-linecap:round;stroke-linejoin:round;stroke-miterlimit:4;stroke-dasharray:none;stroke-opacity:1"
         inkscape:connector-curvature="0" />
      <path
         id="path4630"
         transform="scale(0.26458333)"
         d="m 271.67969,755.31445 v 264.36325 l 131.06836,-131.07614 1.06054,1.06446 -67.88867,-70.07422 h 0.0352 z"
         style="opacity:1;fill:#5a6378;fill-opacity:1;stroke:none;stroke-width:3;stroke-linecap:round;stroke-linejoin:round;stroke-miterlimit:4;stroke-dasharray:none;stroke-opacity:1"
         inkscape:connector-curvature="0" />
      <path
         id="path4628"
         transform="scale(0.26458333)"
         d="m 477.85547,822.65239 -55.03906,55.03907 65.2207,62.94336 54.3457,-53.45508 z"
         style="opacity:1;fill:#8ad437;fill-opacity:1;stroke:none;stroke-width:3;stroke-linecap:round;stroke-linejoin:round;stroke-miterlimit:4;stroke-dasharray:none;stroke-opacity:1"
         inkscape:connector-curvature="0" />
      <path
         id="path4626"
         transform="scale(0.26458333)"
         d="m 469.54102,823.93169 -88.35157,13.58789 38.04688,36.71875 z"
         style="opacity:1;fill:#efa500;fill-opacity:1;stroke:none;stroke-width:3;stroke-linecap:round;stroke-linejoin:round;stroke-miterlimit:4;stroke-dasharray:none;stroke-opacity:1"
         inkscape:connector-curvature="0" />
      <path
         transform="scale(0.26458333)"
         id="path4624"
         d="M 407.26953,893.23833 302.00586,998.502 l 114.29492,7.8868 44.00391,-58.40828 z"
         style="opacity:1;fill:#60b5cc;fill-opacity:1;stroke:none;stroke-width:3;stroke-linecap:round;stroke-linejoin:round;stroke-miterlimit:4;stroke-dasharray:none;stroke-opacity:1"
         inkscape:connector-curvature="0" />
      <path
         sodipodi:nodetypes="ccccccccccccccccc"
         inkscape:connector-curvature="0"
         id="path4622"
         transform="scale(0.26458333)"
         d="m 545.21094,895.61919 -51.41797,50.57031 5.19336,5.01172 -12.26953,12.08399 95.70251,99.00539 -55.11016,65.5553 -35.3177,-23.8212 8.45703,-21.1398 -31.70758,20.61 58.65754,58.1301 97.9543,-98.1862 -102.18091,-103.15582 27.85419,-29.40032 33.19517,32.60888 -11.38566,37.09026 40.04142,-42.61495 z"
         style="opacity:1;fill:#efa500;fill-opacity:1;stroke:none;stroke-width:3;stroke-linecap:round;stroke-linejoin:round;stroke-miterlimit:4;stroke-dasharray:none;stroke-opacity:1" />
      <path
         id="rect4551"
         transform="scale(0.26458333)"
         d="m 483.15625,966.79497 -59.26367,58.37113 -6.08203,0.1465 h 123.86133 z"
         style="opacity:1;fill:#60b5cc;fill-opacity:1;stroke:none;stroke-width:3;stroke-linecap:round;stroke-linejoin:round;stroke-miterlimit:4;stroke-dasharray:none;stroke-opacity:1"
         inkscape:connector-curvature="0" />
      <path
         sodipodi:nodetypes="cccc"
         inkscape:connector-curvature="0"
         id="path4618"
         d="m 153.05406,241.72276 9.78795,10.97436 -0.49434,-11.27097 z"
         style="fill:#efa500;fill-opacity:1;fill-rule:evenodd;stroke:none;stroke-width:0.26458332px;stroke-linecap:butt;stroke-linejoin:miter;stroke-opacity:1" />
      <path
         sodipodi:nodetypes="cccc"
         id="path4626-6"
         d="m 108.5066,276.84089 -34.647319,-5.89622 4.462099,8.07948 z"
         style="opacity:1;fill:#efa500;fill-opacity:1;stroke:none;stroke-width:0.79374999;stroke-linecap:round;stroke-linejoin:round;stroke-miterlimit:4;stroke-dasharray:none;stroke-opacity:1"
         inkscape:connector-curvature="0" />
      <g
         aria-label="elm"
         transform="matrix(0.48658653,0,0,0.5035931,12.482994,136.79475)"
         style="font-style:normal;font-weight:normal;font-size:40px;line-height:125%;font-family:sans-serif;letter-spacing:0px;word-spacing:0px;fill:#ffffff;fill-opacity:1;stroke:none;stroke-width:1px;stroke-linecap:butt;stroke-linejoin:miter;stroke-opacity:1"
         id="flowRoot4511-3" />
    </g>
    <g
       id="g4880"
       transform="translate(-12.718157,72.491574)"
       inkscape:export-xdpi="96"
       inkscape:export-ydpi="96">
      <path
         id="path4712"
         d="m 284.74035,114.68701 30.84687,20.96006 -24.12384,16.60985 z"
         style="fill:#efa500;fill-opacity:1;fill-rule:evenodd;stroke:none;stroke-width:0.26458332;stroke-linecap:butt;stroke-linejoin:miter;stroke-miterlimit:4;stroke-dasharray:none;stroke-opacity:1"
         inkscape:connector-curvature="0" />
      <path
         id="path4730"
         d="m 314.79627,130.11046 -30.4514,-25.70573 26.6944,-25.705721 z"
         style="fill:#8ad437;fill-opacity:1;fill-rule:evenodd;stroke:none;stroke-width:0.26458332;stroke-linecap:butt;stroke-linejoin:miter;stroke-miterlimit:4;stroke-dasharray:none;stroke-opacity:1"
         inkscape:connector-curvature="0" />
      <path
         style="opacity:1;fill:#60b5cc;fill-opacity:1;stroke:none;stroke-width:0.99999994;stroke-linecap:round;stroke-linejoin:round;stroke-miterlimit:4;stroke-dasharray:none;stroke-opacity:1"
         d="m 1427.6641,94.646484 18.039,209.144536 40.0039,-1.31055 c -9.438,-4.8456 -18.3652,-12.5802 -18.3652,-25.65235 0,-17.97003 14.1554,-30.27734 35.8594,-30.27734 14.3435,0 24.9119,6.0562 33.0273,12.30664 l -12.4551,17.1875 c -6.7942,-5.07849 -13.2128,-8.20312 -19.8183,-8.20312 -7.1718,0 -10.5684,2.73402 -10.5684,7.61718 0,6.25045 8.6814,8.59544 18.3067,12.30664 7.4039,2.79752 15.3924,6.5048 20.3671,13.19532 l 25.418,-0.83399 c -3.5606,-4.89185 -6.084,-11.29867 -6.084,-18.61133 0,-23.24384 18.4954,-34.96484 38.6895,-34.96484 4.2452,0 8.3605,0.51305 11.9707,1.52149 z M 1590.084,265.88867 c -7.3605,0 -12.832,5.27465 -12.832,15.62695 0,10.74296 5.4715,16.21094 12.832,16.21094 7.3605,0 12.834,-5.46798 12.834,-16.21094 0,-10.15697 -5.4735,-15.62695 -12.834,-15.62695 z m 33.7832,3.90625 c 1.6986,2.9299 3.0195,7.61878 3.0195,12.69727 0,6.0204 -1.1941,11.16138 -3.332,15.4707 l 33.9414,-1.11328 -30.752,-27.05469 z"
         id="path4829"
         transform="matrix(0.26458333,0,0,0.26458333,30.055926,10.282241)"
         inkscape:connector-curvature="0" />
      <path
         id="path4827"
         d="m 405.15114,35.492649 -24.28275,27.601415 c 18.75523,-0.236956 24.11894,-0.301009 26.02683,-0.322461 z"
         style="opacity:1;fill:#efa500;fill-opacity:1;stroke:none;stroke-width:0.26458332;stroke-linecap:round;stroke-linejoin:round;stroke-miterlimit:4;stroke-dasharray:none;stroke-opacity:1"
         inkscape:connector-curvature="0" />
      <path
         style="opacity:1;fill:#efa500;fill-opacity:1;stroke:none;stroke-width:0.99999994;stroke-linecap:round;stroke-linejoin:round;stroke-miterlimit:4;stroke-dasharray:none;stroke-opacity:1"
         d="m 1319.6133,198.91797 -240.7422,15.64258 50.5312,44.36523 c 8.0892,-7.98406 18.604,-12.375 29.295,-12.375 26.6109,0 39.8222,20.11921 39.8222,46.48828 0,5.07849 -0.5666,10.35335 -1.1328,12.69727 h -14.6699 l 24.3457,21.375 10.6289,-12.10547 V 208.85352 h 27.7422 v 74.55468 l 26.0742,-29.69922 v -4.8125 h 4.2246 z m -160.3496,69.50976 c -4.8162,0 -9.2792,1.87254 -12.625,5.63282 l 14.498,12.72851 h 13.791 c 0,-10.74295 -4.5289,-18.36133 -15.664,-18.36133 z"
         transform="matrix(0.26458333,0,0,0.26458333,30.055926,10.282241)"
         id="path4825"
         inkscape:connector-curvature="0" />
      <path
         style="opacity:1;fill:#60b5cc;fill-opacity:1;stroke:none;stroke-width:0.99999994;stroke-linecap:round;stroke-linejoin:round;stroke-miterlimit:4;stroke-dasharray:none;stroke-opacity:1"
         d="m 1317.8574,218.11914 -29.3379,30.77734 h 5.6367 l 1.8868,12.5 h 0.7558 c 6.293,-6.51289 12.961,-12.25018 21.8301,-14.16601 z m -46.3496,48.625 -26.0742,27.35352 v 22.77148 c 0,6.05512 2.6415,8.00781 4.9062,8.00781 1.1324,0 1.8886,3e-5 3.3985,-0.39062 l 3.3965,21.29101 c -3.0197,1.36729 -7.7368,2.34375 -13.9649,2.34375 -16.6223,0 -23.6253,-9.80609 -25.1465,-25.26757 l -7.2031,7.55664 112.5293,95.07226 -4.0781,-153.96875 c -1.2272,-0.37256 -2.61,-0.54687 -4.166,-0.54687 -4.5296,0 -10.0029,3.1265 -15.8535,9.37695 v 65.43359 h -27.7442 z"
         id="path4823"
         transform="matrix(0.26458333,0,0,0.26458333,30.055926,10.282241)"
         inkscape:connector-curvature="0" />
      <path
         style="opacity:1;fill:#8ad437;fill-opacity:1;stroke:none;stroke-width:0.99999994;stroke-linecap:round;stroke-linejoin:round;stroke-miterlimit:4;stroke-dasharray:none;stroke-opacity:1"
         d="m 1424.916,208.37891 c -0.7891,0.007 -10.1962,0.10933 -98.6621,1.22656 l 1.3613,37.02148 c 11.7183,0.70685 18.9361,6.45731 23.3477,16.13672 8.3041,-8.78969 16.9872,-16.21289 29.4433,-16.21289 20.1942,0 29.252,14.84593 29.252,39.06641 v 27.07617 l 21.8379,-1.39648 z m -54.5137,62.58789 c -4.7182,0 -10.0016,3.1265 -16.041,9.37695 v 35.88477 l 27.5547,-1.76172 v -25.13868 c 0,-14.0635 -3.587,-18.36132 -11.5137,-18.36132 z"
         transform="matrix(0.26458333,0,0,0.26458333,30.055926,10.282241)"
         id="path4821"
         inkscape:connector-curvature="0" />
      <path
         style="opacity:1;fill:#60b5cc;fill-opacity:1;stroke:none;stroke-width:0.99999994;stroke-linecap:round;stroke-linejoin:round;stroke-miterlimit:4;stroke-dasharray:none;stroke-opacity:1"
         d="m 1072.2715,222.07617 15.6426,240.74219 97.8281,-120.23242 c -7.6483,3.53261 -16.0628,5.53515 -23.836,5.53515 -26.7996,0 -47.371,-18.75161 -47.371,-50.78515 0,-11.6436 2.9797,-21.6217 7.8671,-29.57813 z m 69.1875,63.04492 c -0.1123,0.54697 -0.2245,1.09381 -0.3125,1.66797 h 2.1406 z m -0.125,20.61524 c 2.4535,14.0635 11.8895,20.50781 24.3457,20.50781 5.6297,0 10.895,-1.41988 16.2832,-4.21289 l -17.8828,-16.29492 z m 50.5273,25.31445 1.291,2.42774 0.584,-0.71875 z"
         transform="matrix(0.26458333,0,0,0.26458333,30.055926,10.282241)"
         id="path4819"
         inkscape:connector-curvature="0" />
      <path
         style="opacity:1;fill:#5a6378;fill-opacity:1;stroke:none;stroke-width:0.99999994;stroke-linecap:round;stroke-linejoin:round;stroke-miterlimit:4;stroke-dasharray:none;stroke-opacity:1"
         d="m 1660.5195,304.08984 -44.0332,2.81641 c -6.6496,5.53447 -15.9644,8.20508 -26.4023,8.20508 -3.3972,0 -7.1702,-0.58584 -11.3223,-1.95313 -2.4535,2.14859 -3.3984,3.90602 -3.3984,7.22657 0,4.88316 3.7741,7.22656 14.1543,7.22656 h 15.0996 c 12.9998,0 22.6876,2.30664 28.6621,7.4414 z m -100.0175,6.39649 -23.8829,1.52734 c 0.2371,1.5219 0.3653,3.13682 0.3653,4.85547 0,17.57938 -13.4009,31.25195 -38.502,31.25195 -12.2674,0 -26.4228,-5.46817 -35.8594,-13.47656 l 12.4571,-17.9707 c 8.4928,6.6411 16.2315,10.15625 24.1582,10.15625 8.3041,0 11.8887,-3.12464 11.8887,-8.20313 0,-1.87718 -0.8192,-3.45003 -2.1915,-4.84179 l -66.9843,4.2832 13.9765,218.56836 131.6641,-149.6543 c -21.6938,-0.0948 -38.8398,-7.52322 -38.8398,-24.60156 0,-8.00839 4.7188,-14.45472 13.4003,-19.5332 v -0.78125 c -4.9069,-3.32055 -8.6816,-8.39982 -8.6816,-16.40821 0,-5.56999 2.848,-11.01197 7.0313,-15.17187 z m 16.1835,37.83008 c -3.3971,3.12522 -5.0957,6.05639 -5.0957,9.57226 0,7.22708 8.3036,11.13281 20.7598,11.13281 5.0739,0 9.567,-0.88695 13.1309,-2.37304 l 8.3847,-9.5293 c 0,-0.005 0,-0.009 0,-0.0137 0,-6.05512 -5.0959,-7.61719 -14.3437,-7.61719 h -9.625 c -6.4168,0 -10.1913,-0.39057 -13.211,-1.17187 z"
         transform="matrix(0.26458333,0,0,0.26458333,30.055926,10.282241)"
         id="path4817"
         inkscape:connector-curvature="0" />
      <path
         style="opacity:1;fill:#efa500;fill-opacity:1;stroke:none;stroke-width:0.99999994;stroke-linecap:round;stroke-linejoin:round;stroke-miterlimit:4;stroke-dasharray:none;stroke-opacity:1"
         d="m 1431.9707,318.70703 -22.3125,1.42774 v 25.64257 H 1381.916 V 321.9082 l -27.5547,1.76172 v 17.48633 l 83.166,64.44336 z"
         transform="matrix(0.26458333,0,0,0.26458333,30.055926,10.282241)"
         id="path4815"
         inkscape:connector-curvature="0" />
      <path
         style="opacity:1;fill:#8ad437;fill-opacity:1;stroke:none;stroke-width:0.99999994;stroke-linecap:round;stroke-linejoin:round;stroke-miterlimit:4;stroke-dasharray:none;stroke-opacity:1"
         d="m 1331.2617,345.77734 3.4434,93.62696 111.2422,97.86914 -11.7793,-117.36133 -83.3594,-74.13477 z"
         transform="matrix(0.26458333,0,0,0.26458333,30.055926,10.282241)"
         id="path4813"
         inkscape:connector-curvature="0" />
      <path
         id="rect4734"
         d="m 348.67244,99.691831 -29.77907,33.917309 63.69637,-4.13825 z"
         style="opacity:1;fill:#efa500;fill-opacity:1;stroke:none;stroke-width:0.26458332;stroke-linecap:round;stroke-linejoin:round;stroke-miterlimit:4;stroke-dasharray:none;stroke-opacity:1"
         inkscape:connector-curvature="0" />
      <path
         id="path4756"
         d="m 348.80692,63.671047 -32.0685,2.073663 20.99527,-17.892574 z"
         style="fill:#efa500;fill-opacity:1;fill-rule:evenodd;stroke:none;stroke-width:0.26458332px;stroke-linecap:butt;stroke-linejoin:miter;stroke-opacity:1"
         inkscape:connector-curvature="0" />
      <path
         sodipodi:nodetypes="ccccc"
         inkscape:connector-curvature="0"
         id="path4758"
         d="m 350.98201,63.572177 34.60387,-35.098206 21.05892,1.779627 -27.20022,30.621257 z"
         style="fill:#efa500;fill-opacity:1;fill-rule:evenodd;stroke:none;stroke-width:0.26458332;stroke-linecap:butt;stroke-linejoin:miter;stroke-miterlimit:4;stroke-dasharray:none;stroke-opacity:1" />
      <path
         id="path4795"
         d="m 356.3209,134.46066 29.85818,-1.77962 22.14647,20.1691 -24.12383,-0.19773 z"
         style="fill:#5a6378;fill-opacity:1;fill-rule:evenodd;stroke:none;stroke-width:0.26458332px;stroke-linecap:butt;stroke-linejoin:miter;stroke-opacity:1"
         inkscape:connector-curvature="0" />
      <path
         id="path4797"
         d="m 435.81092,133.86745 43.89747,-49.631825 1.18642,50.818245 z"
         style="fill:#efa500;fill-opacity:1;fill-rule:evenodd;stroke:none;stroke-width:0.26458332px;stroke-linecap:butt;stroke-linejoin:miter;stroke-opacity:1"
         inkscape:connector-curvature="0" />
      <path
         id="path4799"
         d="m 482.08122,80.2809 3.16379,54.57524 27.28761,-32.82424 z"
         style="fill:#efa500;fill-opacity:1;fill-rule:evenodd;stroke:none;stroke-width:0.26458332px;stroke-linecap:butt;stroke-linejoin:miter;stroke-opacity:1"
         inkscape:connector-curvature="0" />
    </g>
  </g>
  <g
     inkscape:groupmode="layer"
     id="layer2"
     inkscape:label="Layer 2"
     sodipodi:insensitive="true"
     style="display:none">
    <path
       style="fill:none;fill-rule:evenodd;stroke:#000000;stroke-width:0.26458332px;stroke-linecap:butt;stroke-linejoin:miter;stroke-opacity:1"
       d="m 268.13049,129.31956 -11.86418,-20.16911 22.93742,-19.37816 -0.39546,-9.491345 30.84687,-27.683089 11.07323,11.864181 36.77895,-31.242345 h 20.56459 l -3.16379,4.745674 76.72172,51.015979 13.44606,-7.909455 23.33289,18.191745 -22.14646,33.219715 -38.36086,2.37283 -40.33822,34.01065 -56.94806,-37.17443 -43.89747,3.16378 -17.00534,23.33288 z"
       id="path4710"
       inkscape:connector-curvature="0" />
  </g>
</svg>
